<svg xmlns="http://www.w3.org/2000/svg" viewBox="0 0 512 512"><title>Shop07</title><g id="Shop_07" data-name="Shop 07"><g id="Shop_07-2" data-name="Shop 07"><path d="M419.0233,232.0789,400.2466,152.365V98.4685a9.4477,9.4477,0,0,0-9.45-9.45H121.2007a9.4517,9.4517,0,0,0-9.45,9.45v53.2476L92.97,232.0942a9.3172,9.3172,0,0,0-.2493,2.1519v31.5a40.269,40.269,0,0,0,24.7878,37.1259V413.5315a9.4517,9.4517,0,0,0,9.45,9.45H385.0411a9.4477,9.4477,0,0,0,9.45-9.45V302.872a40.2649,40.2649,0,0,0,24.7878-37.1259v-31.5A9.2844,9.2844,0,0,0,419.0233,232.0789Zm-79.9056,31.4874a9.3429,9.3429,0,0,0-.2772,2.1771,21.3161,21.3161,0,0,1-42.6321,0h.1854v-22.05h42.7239Zm-165.9609-19.87H215.88V264.83c-.0279.3087-.0909.6012-.0909.9162a21.3161,21.3161,0,1,1-42.6321,0Zm104.3406-81.44v62.54h-42.72v-62.54Zm-148.8033,0h25.5591v62.54H114.0844Zm44.4627,0H215.88v62.54h-42.723Zm61.62,103.49v-22.05h42.72v20.22a9.4283,9.4283,0,0,0-.1863,1.83,21.3143,21.3143,0,1,1-42.6285,0Zm61.62-40.95v-62.54H339.12v62.54Zm61.62-62.54H383.161l14.7294,62.54H358.0177Zm-246.3966,81.44h42.6357v22.05a21.3192,21.3192,0,0,1-42.6384,0v-22.05Zm120.63,160.3854V316.165h-72.828v87.9165H136.4053V305.7637a40.1418,40.1418,0,0,0,27.2979-14.1462,40.1646,40.1646,0,0,0,61.5321,0,40.1618,40.1618,0,0,0,61.5294,0,40.1646,40.1646,0,0,0,61.5321,0,40.1349,40.1349,0,0,0,27.2979,14.1462v98.3178ZM379.06,287.059a21.3444,21.3444,0,0,1-21.3192-21.3156h.2772v-22.05h42.3576v22.05A21.3373,21.3373,0,0,1,379.06,287.059Z"/><path d="M351.4216,314.4388h-89.775a9.4494,9.4494,0,0,0-9.4473,9.45v48.63a9.4488,9.4488,0,0,0,9.4473,9.45h89.775a9.4471,9.4471,0,0,0,9.45-9.45v-48.63A9.4454,9.4454,0,0,0,351.4216,314.4388Zm-9.45,48.63h-70.875v-29.73h70.875Z"/></g></g></svg>